<?xml version="1.0" standalone="no"?>
<!DOCTYPE svg PUBLIC "-//W3C//DTD SVG 20010904//EN"
 "http://www.w3.org/TR/2001/REC-SVG-20010904/DTD/svg10.dtd">
<svg version="1.0" xmlns="http://www.w3.org/2000/svg"
 width="612.000000pt" height="367.000000pt" viewBox="0 0 612.000000 367.000000"
 preserveAspectRatio="xMidYMid meet">

<g transform="translate(0.000000,367.000000) scale(0.100000,-0.100000)"
fill="#000000" stroke="none">
<path d="M494 3618 c4 -29 12 -81 18 -115 l11 -63 37 0 c20 0 41 -5 48 -12 8
-8 15 -8 24 -1 7 6 46 21 86 33 58 18 70 25 61 36 -7 9 -21 11 -36 8 -22 -6
-24 -4 -21 17 3 27 18 30 132 29 46 0 73 4 79 12 5 8 10 9 13 3 2 -6 25 -9 52
-7 27 2 42 0 35 -5 -7 -5 9 -10 42 -11 53 -2 55 -1 55 23 l0 25 -127 1 c-71 1
-136 1 -145 0 -12 -2 -20 10 -28 38 l-11 41 -166 0 -166 0 7 -52z"/>
<path d="M1775 3660 c11 -5 27 -11 36 -13 12 -4 18 -24 24 -81 l7 -76 31 -1
c18 0 46 -2 62 -3 17 -1 44 1 60 5 22 5 24 7 8 8 -12 1 -24 10 -28 21 -4 12
-19 22 -39 26 -36 6 -46 28 -46 95 l0 29 -67 -1 c-47 0 -62 -3 -48 -9z"/>
<path d="M2817 3661 c38 -5 60 -14 81 -34 21 -21 38 -27 70 -27 23 0 42 5 42
10 0 6 -9 10 -19 10 -12 0 -21 9 -25 25 -6 25 -8 25 -104 24 -80 -2 -88 -3
-45 -8z"/>
<path d="M3825 3652 c-22 -1 -56 -5 -75 -9 -33 -6 -34 -6 -10 -13 16 -5 19 -8
8 -9 -10 -1 -18 -5 -18 -11 0 -5 -8 -10 -17 -11 -11 0 -13 -3 -5 -6 6 -2 12
-11 12 -19 0 -8 9 -14 20 -14 11 0 20 -4 20 -10 0 -5 -6 -10 -13 -10 -7 0 -20
-9 -30 -20 -15 -17 -15 -20 -1 -20 8 0 12 -5 9 -11 -4 -6 2 -13 12 -15 16 -5
19 -15 19 -65 0 -32 -3 -59 -7 -59 -4 0 -15 -25 -24 -55 -33 -104 -66 -98 -70
14 -4 82 -8 91 -40 91 -15 0 -26 7 -30 20 -9 27 -42 45 -59 31 -7 -6 -37 -11
-67 -12 -30 -1 -63 -5 -74 -9 -17 -6 -16 -8 10 -14 17 -3 61 -10 99 -15 38 -6
73 -14 79 -20 21 -21 -7 -31 -94 -31 -72 0 -89 -3 -89 -15 0 -8 5 -15 11 -15
6 0 -5 -16 -25 -35 -34 -32 -48 -75 -26 -75 6 0 10 -4 10 -9 0 -5 -9 -7 -20
-4 -18 5 -25 -5 -21 -29 0 -5 -8 -8 -19 -8 -11 0 -20 -5 -20 -11 0 -6 27 -10
68 -10 37 0 100 0 140 -1 55 0 77 3 91 16 13 12 20 13 23 6 2 -7 18 -13 35
-14 18 -2 43 -10 57 -19 14 -10 34 -17 46 -17 11 0 20 -6 20 -12 0 -9 4 -8 10
2 6 10 10 11 10 3 0 -20 28 -15 40 6 5 11 10 35 10 55 0 19 5 47 10 61 l10 27
103 -7 102 -7 2 127 c2 74 -1 124 -6 120 -5 -3 -12 3 -14 12 -3 12 -5 8 -6 -9
-1 -34 -18 -45 -24 -16 -3 14 -5 9 -6 -15 -1 -29 -9 -46 -37 -73 l-35 -36 -20
23 c-10 12 -19 27 -19 32 0 6 -6 18 -14 26 -8 9 -15 36 -17 61 -3 65 -1 70 20
70 25 0 33 14 36 55 2 37 -11 42 -90 37z m-195 -282 c0 -13 -7 -20 -20 -20
-19 0 -27 20 -13 33 13 14 33 6 33 -13z m-190 -210 c0 -5 -5 -10 -11 -10 -5 0
-7 5 -4 10 3 6 8 10 11 10 2 0 4 -4 4 -10z"/>
<path d="M4180 3643 c52 -8 54 -17 5 -23 l-50 -7 53 -1 c46 -2 52 0 52 18 0
17 -6 20 -42 19 -26 -1 -33 -3 -18 -6z"/>
<path d="M4892 3578 c2 -36 7 -44 26 -46 22 -3 25 1 37 52 5 25 4 28 -14 23
-12 -3 -24 -1 -27 4 -13 22 -25 5 -22 -33z"/>
<path d="M5373 3575 c-9 -24 2 -50 22 -53 35 -7 45 -23 45 -73 l0 -48 43 -11
c75 -20 82 -22 98 -37 13 -11 25 -12 50 -4 l34 9 -31 1 c-48 1 -57 19 -45 87
6 32 11 72 11 89 l0 32 -72 7 c-40 4 -90 8 -111 10 -26 3 -40 -1 -44 -9z"/>
<path d="M2057 3516 c-4 -11 -1 -16 11 -17 15 0 15 -1 -1 -8 -11 -4 12 -6 50
-5 79 2 260 -21 278 -36 8 -6 15 -6 24 3 9 9 14 9 21 -3 11 -18 -9 -45 -23
-31 -7 7 -17 7 -29 0 -11 -6 -43 -10 -71 -9 -82 4 -86 3 -83 -25 2 -13 -1 -22
-5 -19 -5 3 -9 -1 -9 -9 0 -10 16 -16 52 -19 50 -5 78 -24 90 -60 4 -12 134
-28 158 -20 22 8 7 102 -17 102 -11 0 -14 7 -11 24 4 18 0 26 -14 29 -10 3
-18 14 -18 27 0 14 -8 24 -21 27 -11 3 -18 11 -16 18 12 29 -37 40 -199 43
-140 3 -162 2 -167 -12z"/>
<path d="M1120 3431 c0 -5 -13 -14 -30 -21 -16 -7 -30 -16 -30 -20 0 -4 -14
-14 -32 -21 -32 -13 -32 -13 -8 -19 23 -5 26 -13 37 -90 7 -47 15 -110 17
-140 10 -97 15 -111 37 -100 10 6 18 15 16 21 -3 14 15 23 78 41 l50 15 -77 8
c-69 6 -78 10 -78 27 0 19 5 20 131 15 72 -3 126 -2 120 2 -26 17 293 -13 361
-34 25 -7 44 -19 46 -29 3 -14 -9 -16 -97 -16 -56 0 -103 -4 -106 -10 -3 -5
-2 -10 4 -10 10 0 10 -18 -2 -37 -4 -6 -20 -18 -35 -26 -43 -22 -75 -41 -94
-57 -9 -9 -53 -35 -98 -59 -72 -38 -87 -42 -151 -43 -98 -1 -65 -14 56 -22
134 -9 148 -14 184 -63 21 -29 39 -43 54 -43 21 0 197 -17 427 -40 128 -13
140 -16 140 -40 0 -43 10 -50 69 -50 31 0 62 5 67 10 14 14 317 -17 359 -36
24 -11 25 -13 5 -8 -14 4 -21 3 -17 -2 5 -5 52 -14 105 -19 63 -7 97 -14 100
-23 3 -11 -21 -13 -135 -8 -121 6 -142 4 -153 -10 -9 -10 -10 -18 -3 -22 22
-14 24 -48 4 -58 -11 -5 -77 -64 -148 -131 -70 -66 -147 -136 -170 -155 l-42
-33 0 -81 c-1 -68 -4 -84 -23 -104 -21 -22 -22 -22 -38 -4 -8 10 -22 21 -30
23 -40 11 -120 21 -182 23 -37 1 -68 6 -68 10 0 5 -33 8 -72 8 -68 -1 -141 4
-228 15 -149 18 -235 27 -369 40 -85 8 -158 18 -162 22 -4 5 -10 19 -13 33 -3
14 -10 45 -15 70 -28 130 -62 383 -52 389 6 4 8 29 4 64 l-6 57 -52 0 c-60 0
-86 -18 -54 -38 30 -19 23 -29 -38 -62 -32 -16 -83 -44 -113 -62 -30 -17 -147
-78 -259 -135 -112 -56 -210 -108 -217 -114 -9 -7 -29 -9 -54 -5 l-40 6 0 -70
c0 -38 3 -70 6 -70 3 0 46 23 96 50 50 28 93 50 96 50 3 0 -19 -18 -48 -40
-58 -43 -51 -51 19 -20 24 11 49 20 57 20 23 0 16 -18 -16 -37 -16 -9 -30 -21
-30 -26 0 -4 -4 -6 -9 -3 -13 8 -36 -23 -25 -34 5 -4 34 -10 64 -13 30 -2 158
-18 284 -35 210 -29 263 -41 239 -55 -8 -5 -179 7 -272 19 -39 5 -52 4 -47 -4
4 -7 19 -9 38 -5 22 4 29 3 24 -5 -4 -7 -2 -10 6 -7 14 6 167 -21 176 -30 11
-11 -17 -28 -57 -35 -23 -4 -44 -3 -47 1 -3 5 -24 9 -47 9 -23 0 -91 7 -152
15 -60 8 -121 15 -134 15 -53 0 -10 -9 119 -24 211 -26 260 -36 260 -52 0 -15
-11 -15 -230 12 -180 21 -274 27 -324 20 l-46 -7 0 -194 0 -193 28 -6 c15 -3
103 -17 197 -31 118 -17 173 -29 181 -40 6 -8 19 -54 28 -101 30 -151 17 -149
175 -23 170 137 233 187 274 219 18 13 58 50 90 82 32 31 61 56 64 56 8 -1
103 76 103 83 0 3 -6 6 -12 6 -72 5 -345 46 -353 54 -13 13 21 12 212 -11 149
-17 172 -18 208 -5 58 21 72 19 50 -5 -18 -20 -17 -20 23 -20 22 0 44 5 47 10
7 12 66 14 64 3 -6 -35 46 -48 71 -18 7 8 26 15 43 15 29 0 29 -1 13 -19 -15
-17 -15 -19 -1 -25 27 -10 52 -7 65 9 7 8 28 15 49 15 33 -1 35 -2 17 -15 -18
-14 -18 -15 5 -23 13 -5 71 -15 129 -21 133 -15 157 -20 142 -30 -7 -4 -58 -2
-114 5 -57 6 -133 15 -170 18 l-66 6 -60 -57 c-107 -105 -334 -318 -346 -325
-6 -4 -7 -8 -3 -8 11 0 -11 -21 -46 -43 -15 -10 -25 -22 -22 -28 4 -5 3 -8 -2
-7 -8 2 -69 -51 -221 -197 -121 -115 -142 -137 -142 -146 0 -5 -6 -9 -13 -9
-8 0 -27 -15 -44 -32 -16 -18 -49 -50 -71 -71 -23 -21 -42 -41 -42 -45 1 -35
26 -19 136 86 66 65 194 187 285 272 154 145 237 224 436 414 45 44 80 83 76
89 -3 6 -1 7 4 4 6 -4 16 0 23 8 15 18 43 20 38 2 -2 -7 -30 -37 -63 -67 -33
-29 -157 -146 -275 -259 -512 -490 -597 -570 -632 -593 -20 -13 -20 -17 -9
-83 21 -118 16 -169 -19 -219 -47 -64 -66 -70 -147 -42 -37 13 -88 27 -113 31
-25 3 -79 13 -120 22 -41 8 -88 16 -104 18 -15 3 -37 7 -47 10 -18 6 -19 -2
-19 -194 l0 -201 293 0 292 1 37 47 c21 26 59 70 85 97 109 114 263 283 284
309 12 15 23 25 26 23 8 -9 -21 -51 -80 -118 -10 -11 -16 -23 -13 -26 4 -5 71
52 122 104 27 29 64 31 64 3 0 -14 -7 -20 -21 -20 -11 0 -17 -4 -14 -10 7 -11
-9 -43 -33 -69 -31 -33 -51 -60 -67 -91 -8 -16 -19 -30 -24 -30 -5 0 -8 -8 -7
-17 4 -23 41 -19 78 8 38 27 46 24 50 -17 3 -32 7 -38 43 -50 22 -7 51 -14 65
-14 14 0 53 -7 85 -16 62 -16 252 -47 365 -59 35 -3 78 -14 95 -22 16 -9 38
-20 47 -24 10 -5 156 -9 324 -9 l306 0 -6 128 c-4 70 -11 206 -17 302 -5 96
-9 198 -8 225 0 28 0 90 -1 138 -1 61 3 95 13 110 8 12 24 49 36 82 20 52 22
71 16 147 -4 57 -3 94 5 107 17 33 25 32 640 -40 134 -15 295 -49 329 -68 16
-9 48 -40 70 -69 23 -28 47 -52 55 -52 7 0 19 19 26 43 8 23 26 70 41 103 15
34 29 78 32 97 3 20 12 43 20 51 21 21 41 86 31 96 -5 5 -52 14 -104 20 -52 6
-108 13 -125 15 -155 20 -165 22 -165 37 0 9 86 5 150 -7 8 -1 40 -6 70 -9 30
-4 84 -11 120 -15 57 -7 67 -6 78 10 16 23 42 25 42 4 0 -38 91 -48 119 -13
17 20 48 18 35 -3 -3 -5 0 -16 6 -24 16 -19 100 -21 100 -2 0 7 11 14 25 15
19 1 25 -3 25 -17 0 -38 98 -45 122 -9 17 25 42 16 33 -13 -4 -11 -2 -19 4
-19 6 0 55 -6 109 -14 53 -8 122 -18 152 -21 109 -13 194 -26 199 -30 18 -19
-61 -16 -269 10 -8 1 -42 5 -75 9 -33 4 -76 9 -96 12 -35 5 -38 3 -48 -28 -7
-21 -8 -44 -2 -65 5 -17 5 -35 1 -39 -4 -5 -20 -63 -34 -129 -14 -66 -28 -130
-31 -142 -4 -19 1 -24 32 -32 36 -9 219 -37 401 -61 137 -18 143 -25 137 -140
-2 -36 -2 -79 1 -96 5 -28 9 -30 52 -33 26 -1 49 -6 50 -12 2 -5 10 -9 17 -9
19 0 65 -47 65 -67 0 -9 17 -32 38 -51 20 -19 38 -38 38 -43 1 -5 2 -25 3 -44
1 -28 5 -35 21 -35 18 0 20 -7 20 -80 0 -73 2 -80 20 -80 17 0 20 -7 20 -40 0
-29 4 -40 15 -40 10 0 15 -11 15 -35 l0 -35 525 0 525 0 0 596 c0 394 -3 593
-10 589 -5 -3 -10 -14 -10 -24 0 -10 -7 -24 -16 -32 -13 -10 -17 -10 -25 2 -5
8 -9 21 -9 28 0 10 -3 12 -10 5 -5 -5 -6 -24 0 -49 14 -57 13 -108 -2 -103 -6
2 -20 22 -30 44 -11 21 -25 50 -31 64 -16 33 -68 44 -300 65 -100 8 -226 20
-280 25 -53 6 -162 13 -241 16 -129 6 -146 5 -174 -12 -19 -10 -32 -27 -32
-38 0 -11 -3 -16 -7 -13 -3 4 -12 -1 -20 -11 -12 -15 -13 -4 -7 79 7 113 18
102 -129 124 -56 9 -103 18 -105 20 -11 11 10 35 29 35 12 0 19 3 16 7 -4 3
-2 12 3 18 7 9 6 16 -5 25 -9 7 -15 29 -15 51 0 24 -5 39 -12 39 -10 0 -10 2
0 9 15 9 2 22 -31 34 -25 9 -238 29 -312 29 -52 0 -56 1 -25 8 28 6 22 8 -35
8 -38 0 -88 4 -110 10 -22 5 -80 13 -130 17 -49 3 -119 10 -155 16 -69 10
-137 16 -210 19 -31 1 -39 4 -26 9 10 4 -20 7 -67 7 -47 -1 -83 2 -82 5 2 3
-16 5 -40 4 -25 -1 -42 1 -39 6 2 4 -15 9 -38 11 -37 3 -43 6 -40 23 3 15 1
17 -8 9 -7 -7 -8 -19 -1 -35 10 -28 -39 -20 561 -89 146 -17 272 -33 280 -35
22 -6 -96 3 -245 19 -416 46 -504 56 -538 61 -36 5 -39 4 -53 -32 -11 -25 -14
-50 -9 -80 7 -51 14 -49 -143 -31 -77 9 -101 15 -98 25 7 16 -10 17 -20 1 -5
-7 -9 -30 -10 -52 -2 -36 -22 -64 -34 -48 -19 26 -297 79 -643 123 -106 13
-126 9 -177 -37 -30 -28 -40 -32 -40 -19 0 9 9 28 20 42 11 14 20 31 20 38 0
6 9 20 20 30 18 17 27 45 14 45 -11 0 -44 -21 -70 -45 -27 -25 -64 -34 -64
-15 0 6 5 10 10 10 6 0 10 9 10 19 0 14 -5 18 -20 14 -41 -11 -35 -3 128 176
43 46 81 90 85 97 9 15 27 19 27 6 0 -5 -12 -22 -28 -39 -84 -95 -100 -134
-23 -59 34 33 55 47 66 42 14 -5 13 -10 -8 -38 -13 -18 -32 -46 -42 -61 l-18
-29 46 7 c27 4 52 3 60 -2 6 -6 82 -16 167 -22 482 -38 560 -47 560 -67 0 -8
5 -14 10 -14 6 0 10 4 10 8 0 18 42 52 65 52 14 0 30 8 36 19 7 10 20 16 29
14 32 -9 30 15 -3 37 l-32 21 51 -3 50 -3 -1 35 c-1 19 2 136 5 260 4 124 5
230 3 236 -7 20 -394 39 -424 21 -39 -24 -64 19 -34 59 22 29 20 47 -5 34 -17
-9 -20 -6 -28 22 -6 26 -15 34 -41 39 -44 9 -45 12 -26 53 19 39 40 39 31 0
-4 -14 -2 -24 4 -24 5 0 10 9 10 20 0 12 10 25 24 31 30 14 40 46 18 58 -14 8
-13 10 8 15 58 12 96 13 115 3 11 -6 25 -11 30 -12 6 0 28 -9 50 -19 30 -13
54 -16 95 -12 39 5 61 2 75 -8 11 -7 36 -17 55 -21 19 -4 43 -14 53 -23 15
-13 17 -13 17 0 0 31 23 36 120 28 52 -5 139 -11 193 -15 l97 -7 0 104 c0 148
1 145 -70 140 -33 -2 -116 4 -185 13 -84 12 -129 14 -137 8 -7 -6 -25 -13 -39
-17 -38 -8 -53 14 -47 69 3 25 2 45 -3 45 -4 0 -9 12 -11 27 -2 22 -9 29 -33
33 -25 5 -30 10 -28 33 1 15 -2 27 -6 27 -5 0 -11 9 -14 19 -6 23 -39 28 -254
37 l-153 6 0 -40 c0 -23 5 -44 11 -47 5 -4 53 -9 106 -11 53 -2 102 -9 108
-14 7 -6 37 -13 66 -16 83 -8 99 -13 99 -31 0 -14 -12 -15 -110 -10 -116 7
-127 3 -122 -39 2 -14 -11 -34 -39 -60 -110 -102 -112 -104 -106 -154 4 -29 1
-51 -7 -62 -16 -22 -25 -22 -46 -3 -18 16 -45 20 -285 35 -88 5 -205 14 -260
20 -55 5 -129 12 -165 15 -36 4 -84 11 -106 16 l-41 11 -7 76 c-12 147 -28
226 -48 240 -12 9 -17 21 -13 32 4 12 -1 19 -16 23 -11 3 -18 10 -14 16 8 14
35 14 35 1 0 -5 7 -10 15 -10 15 0 20 34 9 64 -5 14 -8 14 -30 -1 -22 -14 -26
-14 -49 1 -25 17 -145 28 -451 42 -84 3 -156 9 -162 13 -5 3 -17 44 -26 91
-10 46 -20 88 -22 92 -7 11 -24 10 -24 -1z m700 -344 c0 -8 -3 -17 -7 -20 -9
-9 -34 13 -27 24 8 14 34 11 34 -4z m1455 -107 c0 -22 -29 -18 -33 3 -3 14 1
18 15 15 10 -2 18 -10 18 -18z m-457 -498 c2 -7 -6 -12 -17 -12 -21 0 -27 11
-14 24 9 9 26 2 31 -12z m-2123 -682 c3 -5 -1 -10 -10 -10 -9 0 -13 5 -10 10
3 6 8 10 10 10 2 0 7 -4 10 -10z m1382 -52 c5 -7 10 -23 11 -34 0 -17 -4 -21
-19 -17 -13 4 -19 14 -19 34 0 31 11 37 27 17z m976 -15 c-7 -2 -21 -2 -30 0
-10 3 -4 5 12 5 17 0 24 -2 18 -5z m-1023 -103 c0 -5 -7 -10 -15 -10 -8 0 -15
5 -15 10 0 6 7 10 15 10 8 0 15 -4 15 -10z m2378 -40 c81 -13 -5 -9 -108 5
l-95 14 78 -6 c43 -2 99 -8 125 -13z m-1216 -112 c-12 -12 -35 -1 -27 12 3 5
13 6 21 3 10 -4 12 -9 6 -15z m1618 -198 c0 -5 -7 -10 -15 -10 -8 0 -15 5 -15
10 0 6 7 10 15 10 8 0 15 -4 15 -10z m-4225 -1230 c-10 -11 -22 -20 -27 -20
-4 0 -8 9 -8 20 0 15 7 20 27 20 25 0 26 0 8 -20z"/>
<path d="M1840 3426 c0 -26 24 -33 58 -15 25 13 29 18 16 23 -29 11 -74 7 -74
-8z"/>
<path d="M3298 3423 c6 -2 18 -2 25 0 6 3 1 5 -13 5 -14 0 -19 -2 -12 -5z"/>
<path d="M5685 3355 c26 -9 105 -12 105 -4 0 5 -26 9 -57 8 -32 0 -53 -2 -48
-4z"/>
<path d="M4875 3320 c-11 -18 -17 -154 -7 -168 13 -19 60 2 72 33 11 29 13
105 4 129 -10 26 -25 18 -18 -9 5 -21 3 -25 -15 -25 -23 0 -28 19 -9 38 9 9 8
12 -4 12 -9 0 -20 -5 -23 -10z"/>
<path d="M5571 3316 c-8 -9 -28 -16 -45 -16 -26 0 -34 -6 -48 -38 -34 -78 -34
-146 2 -155 11 -3 23 -21 31 -46 15 -50 41 -75 82 -78 46 -3 129 -31 98 -32
-23 -1 -23 -2 -7 -14 27 -20 18 -69 -14 -74 -14 -2 -30 -5 -36 -7 -16 -6 -44
-64 -44 -91 0 -33 -24 -59 -49 -52 -11 3 -21 1 -21 -3 0 -5 -9 -11 -19 -15
-10 -3 -24 -19 -31 -35 -7 -17 -16 -30 -21 -30 -16 0 -10 -106 6 -120 8 -7 15
-18 15 -25 0 -21 146 -77 181 -70 16 4 29 11 29 16 0 5 11 4 26 -1 34 -13 34
-13 34 10 0 17 4 19 28 14 30 -7 54 -24 34 -24 -19 0 -14 -16 13 -48 13 -16
28 -48 34 -70 9 -41 8 -42 -18 -42 -31 0 -51 -16 -51 -42 0 -10 -7 -18 -15
-18 -11 0 -15 -12 -15 -44 0 -54 -12 -64 -38 -31 -11 13 -22 21 -26 18 -3 -3
-6 0 -6 7 0 10 -16 11 -72 6 -105 -10 -127 -13 -183 -26 -71 -16 -377 -18
-383 -2 -2 7 -24 12 -59 12 l-55 0 2 73 c3 122 7 114 -55 127 -30 6 -59 9 -63
6 -5 -3 -12 -36 -15 -73 -7 -88 -35 -343 -50 -458 -7 -49 -11 -97 -10 -105 3
-11 18 -15 55 -17 102 -3 135 -12 140 -38 4 -18 0 -25 -16 -28 -13 -3 -9 -5
12 -6 19 0 31 -5 27 -11 -3 -6 1 -7 9 -4 10 4 19 -1 23 -12 32 -79 86 -114
173 -114 23 0 39 -4 36 -8 -3 -5 14 -9 36 -11 45 -2 117 -14 443 -71 39 -7 91
-12 118 -11 29 1 47 -3 47 -10 0 -15 83 -5 88 10 2 6 8 9 13 6 5 -4 8 4 8 17
-2 30 4 51 16 60 6 5 5 8 -3 8 -10 0 -10 3 0 14 19 20 39 5 60 -45 18 -43 19
-43 13 -9 -3 19 -8 55 -11 80 -5 43 -5 44 10 20 8 -14 12 -28 10 -32 -3 -5 0
-8 5 -8 6 0 11 -9 11 -20 0 -11 13 -34 30 -52 l29 -33 1 387 0 387 -42 5 c-24
3 -58 7 -77 8 -19 2 -36 9 -39 17 -4 11 12 13 77 10 l81 -4 0 86 0 86 -66 6
c-90 9 -94 13 -78 89 8 35 12 69 9 76 -3 7 -1 22 5 32 13 24 15 169 3 181 -5
5 -63 14 -129 20 -65 6 -123 14 -128 20 -22 21 12 27 114 19 107 -8 129 -4
160 29 8 9 16 33 18 54 l4 37 -60 0 c-32 0 -93 3 -135 6 -90 8 -94 14 -77 121
6 37 13 87 15 110 5 50 8 48 -119 57 -44 3 -81 8 -84 11 -2 2 -2 12 2 21 6 15
19 16 101 12 72 -4 98 -2 106 8 15 18 4 21 -86 28 -38 2 -79 8 -91 11 -13 4
-25 1 -33 -9z m-27 -45 c3 -5 0 -13 -7 -19 -15 -13 -42 1 -33 17 9 13 33 15
40 2z m146 -456 c0 -8 -9 -15 -20 -15 -11 0 -20 7 -20 15 0 8 9 15 20 15 11 0
20 -7 20 -15z m-820 -515 c0 -5 -7 -10 -15 -10 -8 0 -15 5 -15 10 0 6 7 10 15
10 8 0 15 -4 15 -10z m1020 -90 c0 -5 -9 -10 -20 -10 -11 0 -20 5 -20 10 0 6
9 10 20 10 11 0 20 -4 20 -10z"/>
<path d="M0 3281 l0 -29 105 -7 c58 -4 108 -5 111 -2 3 3 3 19 -1 36 l-7 31
-104 0 -104 0 0 -29z"/>
<path d="M177 3070 c-14 -11 -30 -20 -36 -20 -6 0 -25 -8 -44 -19 -18 -10 -48
-22 -65 -26 l-32 -7 0 -74 0 -74 40 0 c22 0 40 -4 40 -10 0 -5 10 -10 23 -10
48 0 64 -46 20 -56 -34 -8 -55 -23 -47 -35 3 -5 0 -18 -6 -29 -9 -17 -17 -20
-41 -15 l-29 7 0 -97 c0 -88 2 -97 18 -90 9 4 37 13 62 22 100 33 139 55 137
77 -1 16 4 22 23 23 66 7 133 26 119 33 -11 6 -150 30 -175 30 -2 0 -4 7 -4
15 0 13 24 15 163 13 89 0 187 0 217 0 30 1 93 -3 140 -9 47 -5 101 -11 121
-12 28 -1 35 -6 31 -17 -4 -12 -2 -13 8 -3 10 9 11 28 4 80 l-9 67 -50 -2
c-49 -3 -389 22 -472 34 -40 6 -43 9 -53 48 -5 22 -17 64 -25 92 -8 28 -15 58
-15 67 0 23 -32 21 -63 -3z m-29 -347 c2 -8 -5 -13 -17 -13 -12 0 -21 6 -21
16 0 18 31 15 38 -3z"/>
<path d="M4847 2907 c-7 -18 -25 -183 -31 -279 l-4 -78 25 0 c55 0 92 87 100
235 l6 112 -29 7 c-16 4 -36 9 -45 12 -9 2 -19 -2 -22 -9z m53 -43 c0 -8 -7
-14 -15 -14 -15 0 -21 21 -9 33 10 9 24 -2 24 -19z"/>
<path d="M4042 2563 c3 -4 12 -24 21 -44 9 -20 24 -39 32 -43 16 -6 121 -16
415 -41 102 -8 210 -18 240 -21 44 -5 52 -4 43 8 -6 7 -9 23 -7 34 2 12 -2 26
-9 31 -10 9 -177 31 -287 38 -19 2 -82 6 -140 10 -58 4 -107 8 -110 10 -3 2
-42 4 -85 6 -44 1 -88 6 -99 11 -10 6 -16 6 -14 1z"/>
<path d="M2050 2510 c0 -11 4 -20 10 -20 5 0 14 9 20 20 9 17 8 20 -10 20 -13
0 -20 -7 -20 -20z"/>
<path d="M2140 2488 c0 -11 28 -10 35 1 3 6 -4 9 -15 8 -11 -1 -20 -5 -20 -9z"/>
<path d="M2246 2481 c-4 -5 3 -7 14 -4 23 6 26 13 6 13 -8 0 -17 -4 -20 -9z"/>
<path d="M2345 2481 c-2 -5 4 -11 15 -14 11 -3 20 -2 20 3 0 12 -28 21 -35 11z"/>
<path d="M65 2096 c-18 -13 -18 -14 8 -9 15 3 24 9 21 14 -7 12 -7 12 -29 -5z"/>
<path d="M70 2000 c-12 -8 -12 -10 5 -10 11 0 27 5 35 10 12 8 12 10 -5 10
-11 0 -27 -5 -35 -10z"/>
<path d="M253 1973 c9 -2 25 -2 35 0 9 3 1 5 -18 5 -19 0 -27 -2 -17 -5z"/>
<path d="M321 1976 c2 -2 22 -6 44 -9 27 -4 35 -3 25 3 -14 9 -79 15 -69 6z"/>
<path d="M7 1964 c-4 -4 -7 -15 -7 -25 0 -12 6 -16 20 -12 12 3 20 12 18 21
-3 17 -21 26 -31 16z"/>
<path d="M2224 1798 l-19 -23 23 19 c21 18 27 26 19 26 -2 0 -12 -10 -23 -22z"/>
<path d="M3345 1800 c-3 -5 -1 -10 4 -10 6 0 11 5 11 10 0 6 -2 10 -4 10 -3 0
-8 -4 -11 -10z"/>
<path d="M2274 1746 c-22 -17 -11 -35 13 -20 19 12 29 34 16 34 -5 0 -18 -6
-29 -14z"/>
<path d="M3298 1753 c7 -3 16 -2 19 1 4 3 -2 6 -13 5 -11 0 -14 -3 -6 -6z"/>
<path d="M1123 1675 c-53 -47 -53 -66 -2 -40 29 16 34 16 44 2 10 -14 18 -10
61 28 46 41 47 44 24 46 -14 1 -37 3 -52 5 -21 2 -39 -8 -75 -41z"/>
<path d="M2408 1713 c6 -2 18 -2 25 0 6 3 1 5 -13 5 -14 0 -19 -2 -12 -5z"/>
<path d="M2488 1713 c7 -3 16 -2 19 1 4 3 -2 6 -13 5 -11 0 -14 -3 -6 -6z"/>
<path d="M2538 1703 c7 -3 16 -2 19 1 4 3 -2 6 -13 5 -11 0 -14 -3 -6 -6z"/>
<path d="M1274 1678 c-52 -41 -66 -56 -60 -67 5 -7 1 -8 -10 -4 -12 4 -15 3
-10 -5 4 -7 2 -12 -5 -12 -11 0 -178 -136 -295 -240 -28 -25 -84 -74 -124
-110 -41 -36 -97 -86 -125 -111 -27 -25 -71 -62 -97 -83 -27 -21 -48 -47 -48
-57 0 -37 9 -31 195 140 28 25 77 68 110 96 63 52 99 83 175 151 25 22 61 53
81 70 20 16 76 65 124 108 76 70 89 78 106 68 10 -7 21 -12 24 -12 9 0 85 72
85 81 0 5 -22 9 -49 9 -35 0 -56 -6 -77 -22z"/>
<path d="M4755 1690 c-15 -6 -8 -9 29 -9 42 -1 47 -3 36 -16 -17 -21 9 -30 58
-19 l37 8 -38 4 c-20 2 -35 7 -32 12 3 4 -9 13 -27 19 -35 13 -36 13 -63 1z"/>
<path d="M1419 1673 c-41 -27 -89 -76 -83 -85 3 -4 0 -8 -7 -8 -12 0 -105 -78
-185 -155 -22 -22 -79 -74 -125 -115 -124 -110 -158 -141 -199 -180 -21 -19
-72 -66 -115 -105 -146 -133 -175 -162 -175 -179 0 -25 11 -18 82 50 35 34 86
80 113 104 28 23 77 68 110 99 33 31 80 74 105 95 25 22 77 69 115 105 39 36
113 104 165 150 111 98 141 131 133 144 -3 6 -1 7 5 3 6 -4 21 -2 32 4 16 8
25 8 35 0 9 -8 20 -8 32 -2 22 13 78 70 72 76 -2 2 -22 6 -45 9 -29 5 -47 2
-65 -10z"/>
<path d="M4731 1656 c-9 -11 -8 -15 5 -20 22 -8 24 -8 24 8 0 21 -16 28 -29
12z"/>
<path d="M2381 1646 c2 -2 33 -6 69 -9 42 -4 58 -3 45 3 -19 8 -123 14 -114 6z"/>
<path d="M3113 1635 c-3 -9 -3 -18 -1 -21 3 -3 8 4 11 16 6 23 -1 27 -10 5z"/>
<path d="M2568 1623 c6 -2 18 -2 25 0 6 3 1 5 -13 5 -14 0 -19 -2 -12 -5z"/>
<path d="M4883 1617 c5 -15 37 -22 37 -9 0 5 -9 12 -21 15 -13 3 -19 1 -16 -6z"/>
<path d="M999 1573 c-60 -43 -104 -79 -303 -248 -45 -38 -112 -95 -149 -125
-46 -38 -67 -62 -67 -77 0 -32 8 -29 65 22 28 25 53 45 57 45 4 0 30 22 57 49
28 26 51 46 51 45 0 -5 9 2 150 122 188 159 229 197 224 206 -9 14 -20 9 -85
-39z"/>
<path d="M4732 1613 c-19 -8 5 -33 32 -32 11 0 15 3 9 6 -7 2 -13 11 -13 19 0
15 -6 16 -28 7z"/>
<path d="M4825 1590 c3 -5 8 -10 11 -10 2 0 4 5 4 10 0 6 -5 10 -11 10 -5 0
-7 -4 -4 -10z"/>
<path d="M1363 1525 c-24 -25 -35 -41 -25 -36 17 9 51 45 66 69 13 22 2 12
-41 -33z"/>
<path d="M4760 1556 c0 -12 9 -16 35 -16 19 0 35 5 35 10 0 6 -6 10 -12 10 -7
0 -23 3 -35 6 -17 5 -23 2 -23 -10z"/>
<path d="M1285 1460 c-3 -6 1 -7 9 -4 18 7 21 14 7 14 -6 0 -13 -4 -16 -10z"/>
<path d="M5971 1394 c0 -11 3 -14 6 -6 3 7 2 16 -1 19 -3 4 -6 -2 -5 -13z"/>
<path d="M3714 1374 c-10 -14 -13 -34 -9 -56 5 -25 -7 -67 -49 -183 -30 -82
-53 -151 -51 -153 2 -2 27 -5 55 -6 l52 -1 43 130 c23 71 40 135 38 143 -3 7
4 23 16 35 26 28 47 85 35 97 -5 5 -33 11 -62 13 -47 4 -55 2 -68 -19z"/>
<path d="M6046 1380 c3 -14 11 -32 16 -40 6 -10 7 -7 2 10 -3 14 -11 32 -16
40 -6 10 -7 7 -2 -10z"/>
<path d="M3871 1354 c-6 -14 -9 -40 -6 -58 4 -19 0 -48 -8 -71 -34 -89 -79
-247 -74 -259 5 -14 57 -24 89 -18 10 2 20 19 27 45 5 23 19 69 31 102 12 33
22 80 23 105 1 27 9 53 20 65 17 19 44 92 36 99 -2 2 -31 7 -65 10 -58 5 -61
5 -73 -20z"/>
<path d="M4038 1342 c-7 -8 -13 -40 -14 -71 -1 -31 -18 -118 -39 -194 -21 -75
-36 -140 -32 -143 3 -3 29 -7 58 -8 l52 -1 34 130 c20 80 30 141 27 159 -4 18
-2 26 4 22 10 -6 26 27 38 76 7 32 3 34 -68 41 -35 3 -51 0 -60 -11z"/>
<path d="M882 290 c-12 -19 -11 -20 8 -8 20 13 27 28 12 28 -4 0 -13 -9 -20
-20z"/>
<path d="M860 100 c-8 -5 -11 -13 -6 -17 5 -4 11 -2 13 5 3 6 10 9 15 6 7 -4
8 -2 4 4 -9 14 -7 14 -26 2z"/>
<path d="M1005 72 c16 -16 72 -30 200 -52 130 -22 191 -25 199 -11 3 5 -7 11
-22 14 -15 2 -74 14 -132 26 -124 26 -260 39 -245 23z"/>
<path d="M960 10 c0 -6 28 -10 68 -9 52 1 60 3 37 9 -45 11 -105 11 -105 0z"/>
</g>
</svg>
